HIERARCHY
ROOT hip
{
  OFFSET 0 0 0
  CHANNELS 6 Xposition Yposition Zposition Zrotation Yrotation Xrotation
  JOINT abdomen
  {
    OFFSET 0 20.6881 -0.73152
    CHANNELS 3 Zrotation Xrotation Yrotation
    JOINT chest
    {
      OFFSET 0 11.7043 -0.48768
      CHANNELS 3 Zrotation Xrotation Yrotation
      JOINT neck
      {
        OFFSET 0 22.1894 -2.19456
        CHANNELS 3 Zrotation Xrotation Yrotation
        JOINT head
        {
          OFFSET -0.24384 7.07133 1.2192
          CHANNELS 3 Zrotation Xrotation Yrotation
          JOINT leftEye
          {
            OFFSET 4.14528 8.04674 8.04672
            CHANNELS 3 Zrotation Xrotation Yrotation
            End Site
            {
              OFFSET 1 0 0
            }
          }
          JOINT rightEye
          {
            OFFSET -3.6576 8.04674 8.04672
            CHANNELS 3 Zrotation Xrotation Yrotation
            End Site
            {
              OFFSET 1 0 0
            }
          }
        }
      }
      JOINT rCollar
      {
        OFFSET -2.68224 19.2634 -4.8768
        CHANNELS 3 Zrotation Xrotation Yrotation
        JOINT rShldr
        {
          OFFSET -8.77824 -1.95073 1.46304
          CHANNELS 3 Zrotation Xrotation Yrotation
          JOINT rForeArm
          {
            OFFSET -28.1742 -1.7115 0.48768
            CHANNELS 3 Zrotation Xrotation Yrotation
            JOINT rHand
            {
              OFFSET -22.5879 0.773209 7.07136
              CHANNELS 3 Zrotation Xrotation Yrotation
              JOINT rThumb1
              {
                OFFSET -1.2192 -0.487915 3.41376
                CHANNELS 3 Zrotation Xrotation Yrotation
                JOINT rThumb2
                {
                  OFFSET -3.37035 -0.52449 3.41376
                  CHANNELS 3 Zrotation Xrotation Yrotation
                  End Site
                  {
                    OFFSET -1.78271 -1.18214 1.43049
                  }
                }
              }
              JOINT rIndex1
              {
                OFFSET -7.75947 0.938293 5.60832
                CHANNELS 3 Zrotation Xrotation Yrotation
                JOINT rIndex2
                {
                  OFFSET -2.54057 -0.884171 1.56538
                  CHANNELS 3 Zrotation Xrotation Yrotation
                  End Site
                  {
                    OFFSET -1.62519 -0.234802 1.16502
                  }
                }
              }
              JOINT rMid1
              {
                OFFSET -8.24714 1.18213 3.41376
                CHANNELS 3 Zrotation Xrotation Yrotation
                JOINT rMid2
                {
                  OFFSET -3.10165 -0.590103 1.0647
                  CHANNELS 3 Zrotation Xrotation Yrotation
                  End Site
                  {
                    OFFSET -2.48547 -0.328903 0.83742
                  }
                }
              }
              JOINT rRing1
              {
                OFFSET -8.82822 0.546677 1.51678
                CHANNELS 3 Zrotation Xrotation Yrotation
                JOINT rRing2
                {
                  OFFSET -2.60934 -0.819778 -0.0198488
                  CHANNELS 3 Zrotation Xrotation Yrotation
                  End Site
                  {
                    OFFSET -2.33842 -0.294052 0.168128
                  }
                }
              }
              JOINT rPinky1
              {
                OFFSET -8.27202 -0.0477905 -0.4584
                CHANNELS 3 Zrotation Xrotation Yrotation
                JOINT rPinky2
                {
                  OFFSET -1.82734 -0.647385 -0.700984
                  CHANNELS 3 Zrotation Xrotation Yrotation
                  End Site
                  {
                    OFFSET -1.69225 -0.51767 -0.607171
                  }
                }
              }
            }
          }
        }
      }
      JOINT lCollar
      {
        OFFSET 2.68224 19.2634 -4.8768
        CHANNELS 3 Zrotation Xrotation Yrotation
        JOINT lShldr
        {
          OFFSET 8.77824 -1.95073 1.46304
          CHANNELS 3 Zrotation Xrotation Yrotation
          JOINT lForeArm
          {
            OFFSET 28.1742 -1.7115 0.48768
            CHANNELS 3 Zrotation Xrotation Yrotation
            JOINT lHand
            {
              OFFSET 22.5879 0.773209 7.07136
              CHANNELS 3 Zrotation Xrotation Yrotation
              JOINT lThumb1
              {
                OFFSET 1.2192 -0.487915 3.41376
                CHANNELS 3 Zrotation Xrotation Yrotation
                JOINT lThumb2
                {
                  OFFSET 3.37035 -0.52449 3.41376
                  CHANNELS 3 Zrotation Xrotation Yrotation
                  End Site
                  {
                    OFFSET 1.78271 -1.18214 1.43049
                  }
                }
              }
              JOINT lIndex1
              {
                OFFSET 7.75947 0.938293 5.60832
                CHANNELS 3 Zrotation Xrotation Yrotation
                JOINT lIndex2
                {
                  OFFSET 2.54057 -0.884171 1.56538
                  CHANNELS 3 Zrotation Xrotation Yrotation
                  End Site
                  {
                    OFFSET 1.62519 -0.234802 1.16502
                  }
                }
              }
              JOINT lMid1
              {
                OFFSET 8.24714 1.18213 3.41376
                CHANNELS 3 Zrotation Xrotation Yrotation
                JOINT lMid2
                {
                  OFFSET 3.10165 -0.590103 1.0647
                  CHANNELS 3 Zrotation Xrotation Yrotation
                  End Site
                  {
                    OFFSET 2.48547 -0.328903 0.83742
                  }
                }
              }
              JOINT lRing1
              {
                OFFSET 8.82822 0.546677 1.51678
                CHANNELS 3 Zrotation Xrotation Yrotation
                JOINT lRing2
                {
                  OFFSET 2.60934 -0.819778 -0.0198488
                  CHANNELS 3 Zrotation Xrotation Yrotation
                  End Site
                  {
                    OFFSET 2.33842 -0.294052 0.168128
                  }
                }
              }
              JOINT lPinky1
              {
                OFFSET 8.27202 -0.0477905 -0.4584
                CHANNELS 3 Zrotation Xrotation Yrotation
                JOINT lPinky2
                {
                  OFFSET 1.82734 -0.647385 -0.700984
                  CHANNELS 3 Zrotation Xrotation Yrotation
                  End Site
                  {
                    OFFSET 1.69225 -0.51767 -0.607171
                  }
                }
              }
            }
          }
        }
      }
    }
  }
  JOINT rButtock
  {
    OFFSET -8.77824 4.35084 1.2192
    CHANNELS 3 Zrotation Xrotation Yrotation
    JOINT rThigh
    {
      OFFSET 0 -1.70687 -2.19456
      CHANNELS 3 Zrotation Xrotation Yrotation
      JOINT rShin
      {
        OFFSET 0 -36.8199 0.73152
        CHANNELS 3 Zrotation Xrotation Yrotation
        JOINT rFoot
        {
          OFFSET 0.73152 -45.1104 -5.12064
          CHANNELS 3 Zrotation Xrotation Yrotation
          End Site
          {
            OFFSET -1.1221 -3.69964 12.103
          }
        }
      }
    }
  }
  JOINT lButtock
  {
    OFFSET 8.77824 4.35084 1.2192
    CHANNELS 3 Zrotation Xrotation Yrotation
    JOINT lThigh
    {
      OFFSET 0 -1.70687 -2.19456
      CHANNELS 3 Zrotation Xrotation Yrotation
      JOINT lShin
      {
        OFFSET 0 -36.8199 0.73152
        CHANNELS 3 Zrotation Xrotation Yrotation
        JOINT lFoot
        {
          OFFSET -0.73152 -45.1104 -5.12064
          CHANNELS 3 Zrotation Xrotation Yrotation
          End Site
          {
            OFFSET 1.1221 -3.69964 12.103
          }
        }
      }
    }
  }
}
MOTION
Frames:	10
Frame Time:	0.00833333
0.0 0.0 0.0 0.0 0.0 0.0 0.0 0.0 0.0 0.0 0.0 0.0 0.0 0.0 0.0 0.0 0.0 0.0 0.0 0.0 0.0 0.0 0.0 0.0 0.0 0.0 0.0 0.0 0.0 0.0 0.0 0.0 0.0 0.0 0.0 0.0 0.0 0.0 0.0 0.0 0.0 0.0 0.0 0.0 0.0 0.0 0.0 0.0 0.0 0.0 0.0 0.0 0.0 0.0 0.0 0.0 0.0 0.0 0.0 0.0 0.0 0.0 0.0 0.0 0.0 0.0 0.0 0.0 0.0 0.0 0.0 0.0 0.0 0.0 0.0 0.0 0.0 0.0 0.0 0.0 0.0 0.0 0.0 0.0 0.0 0.0 0.0 0.0 0.0 0.0 0.0 0.0 0.0 0.0 0.0 0.0 0.0 0.0 0.0 0.0 0.0 0.0 0.0 0.0 0.0 0.0 0.0 0.0 0.0 0.0 0.0 0.0 0.0 0.0 0.0 0.0 0.0 0.0 0.0 0.0 0.0 0.0 0.0 0.0 0.0 0.0 0.0 0.0 0.0 0.0 0.0 0.0
-74.0089 84.1215 8.15934 -0.0 -0.0 -0.0 -0.0 -4.771896 -180.0 -0.0 -4.771896 180.0 -8.133567 10.422116 -81.502261 11.496437 6.51512 81.58876 -0.0 0.0 -0.0 -0.0 0.0 -0.0 -159.220516 -48.028485 170.415257 -129.108159 52.177169 136.516976 -121.839485 70.344226 105.622484 72.637524 -70.085875 57.925694 -3.228371 3.155105 0.582602 -90.226537 17.98369 83.125056 -19.170572 24.114561 13.380841 -94.001749 53.053712 63.985368 -175.932641 -50.680399 144.035247 -166.985101 -20.098814 141.63323 -145.118942 0.185466 -179.186604 22.491753 39.867282 -4.519515 17.604334 61.627798 12.867429 -12.40468 -23.727221 -13.386821 155.504155 -3.514523 -161.838528 -13.339758 15.53738 -17.917876 -94.854054 74.365316 99.760101 50.746712 69.823327 -33.62954 -82.305236 -50.136196 -32.954928 110.811794 35.137971 -74.415437 -24.075919 -42.306446 5.558499 -4.828719 4.037754 -6.092448 0.057679 0.167876 -0.032027 -8.313361 -25.437305 1.537877 -0.004871 1.772325 -0.55677 162.124455 32.062892 -166.896662 135.068796 -13.384184 132.47003 -4.992254 -0.303986 0.699989 -0.0 0.0 -0.0 -0.0 -0.0 -0.0 -2.721753 1.041334 -25.607042 -58.481504 -28.233569 31.209048 -0.0 0.0 -0.0 -0.0 -0.0 -0.0 2.721753 1.041334 25.607042 58.481504 -28.233569 -31.209048
-74.1159 84.1871 7.716779999999999 -0.0 0.0 -0.0 -0.0 -4.771896 -180.0 -0.0 -4.771896 -180.0 -8.144544 9.765136 -77.762661 11.253376 5.904095 77.877376 0.0 -0.0 -0.0 0.0 -0.0 -0.0 -85.537448 68.182427 88.688908 5.843373 75.512119 13.59165 -88.09946 -75.640643 -109.849742 49.498461 -65.870418 36.106583 71.831195 -48.263725 25.791675 -160.685765 -56.714908 139.929763 -19.170572 24.114561 13.380841 -70.771683 52.924494 43.700498 -89.835461 60.702148 81.262754 -3.072118 20.69437 1.050609 -0.006679 3.473835 1.091901 -164.112876 20.814137 169.454266 7.928213 24.811638 7.002569 -162.688826 52.168831 -147.965138 155.460052 -3.227798 -161.777534 -23.198038 -15.362493 -15.83025 178.770001 -0.091507 -178.864149 5.962116 18.699821 -0.336095 93.743665 37.963835 -53.548561 133.840427 -20.571719 -77.513114 -0.184726 -0.300416 0.104009 10.034996 13.207958 -3.18658 151.476684 17.84174 -137.538824 151.650356 20.005797 -139.91655 145.118942 0.185466 179.186604 -20.549968 -0.078961 9.047368 161.704759 70.564335 151.025746 -53.022737 78.923095 16.672606 -0.0 0.0 -0.0 -0.0 -2.27635 -180.0 -6.880793 -5.921355 -107.859822 -11.465574 25.060334 -64.504817 -0.0 0.0 -0.0 -0.0 -2.27635 -180.0 6.880793 -5.921355 107.859822 11.465574 25.060334 64.504817
-74.2322 84.2568 7.26657 -0.0 -0.0 -0.0 -0.0 -4.771896 -180.0 0.0 -4.771896 -180.0 -8.133567 10.422116 -81.502261 11.496437 6.51512 81.58876 0.0 -0.0 -0.0 0.0 -0.0 -0.0 -80.1661 68.371792 83.260848 -74.088902 86.559311 93.605397 -176.961126 11.198437 178.92411 -4.241115 13.475368 0.037811 -7.758532 7.439094 1.682075 -102.598389 5.87837 93.824347 -45.475677 39.420397 35.670564 -6.403109 15.701845 -7.409066 -36.036059 51.723116 29.832321 -32.473352 56.61752 25.130589 -114.669357 66.731663 135.092548 -147.739083 -32.53073 -165.518767 -149.470074 26.86315 -145.483518 13.121536 24.356579 3.090103 9.651699 34.836178 -11.199233 13.947974 -74.820692 25.030574 -178.187819 -29.115562 -142.061999 -173.365402 -8.524088 -144.738547 178.927535 -16.453687 -89.421826 176.509473 -12.839523 -96.868616 19.170572 24.114561 -13.380841 169.593298 -7.616542 -115.188263 160.673322 -6.667841 -143.245105 -17.066248 -31.399432 0.977253 0.006679 3.473835 -1.091901 165.969876 -0.630293 -172.517211 162.614765 72.590154 150.839104 10.178574 -22.802045 13.727591 -0.0 0.0 -0.0 -0.0 -0.0 -0.0 -2.721753 1.041334 -25.607042 -58.481504 -28.233569 31.209048 -0.0 0.0 -0.0 -0.0 -0.0 -0.0 2.721753 1.041334 25.607042 58.481504 -28.233569 -31.209048
-74.3255 84.3069 6.8061 -0.0 0.0 -0.0 -0.0 -4.771896 -180.0 0.0 -4.771896 -180.0 10.50515 4.498364 68.886613 -7.991713 8.18131 -68.727902 0.0 0.0 0.0 0.0 0.0 0.0 -155.417258 -2.951435 161.718542 58.728119 -68.140178 38.738891 166.811349 -0.449621 170.453181 -51.23607 69.958412 34.082018 2.012629 -1.996597 -0.274913 -30.361595 24.224434 25.951262 -9.376465 13.535451 6.014134 -6.14984 8.047564 -1.506024 -0.057679 0.167876 0.032027 -166.599371 -5.06083 143.364556 -72.96523 -72.143029 -89.99016 16.870703 -13.092843 4.37207 -8.191002 -17.575975 -7.729117 -130.826561 -29.908237 -127.568195 155.417258 -2.951435 -161.718542 -58.728119 -68.140178 -38.738891 -100.832241 79.516384 129.370953 178.704428 16.465482 -145.046076 -3.024903 -3.006688 0.387008 -20.553499 -36.719438 17.053734 151.679432 -17.764752 -121.237135 23.191448 52.093019 -20.298307 160.673322 -6.667841 -143.245105 10.687817 36.776133 -11.266049 0.014868 -1.323148 0.415899 -1.297451 -21.756571 2.289784 -7.928213 24.811638 -7.002569 163.843008 55.300327 147.957238 -0.0 0.0 -0.0 -0.0 -2.27635 -180.0 -6.880793 -5.921355 -107.859822 -11.465574 25.060334 -64.504817 -0.0 0.0 -0.0 -0.0 -2.27635 -180.0 6.880793 -5.921355 107.859822 11.465574 25.060334 64.504817
-74.3669 84.3328 6.32297 -0.0 0.0 -0.0 -0.0 -4.771896 -180.0 -0.0 -4.771896 -180.0 -8.144544 9.765136 -77.762661 11.253376 5.904095 77.877376 0.0 -0.0 -0.0 0.0 -0.0 -0.0 -85.537448 68.182427 88.688908 5.843373 75.512119 13.59165 -88.09946 -75.640643 -109.849742 49.498461 -65.870418 36.106583 71.831195 -48.263725 25.791675 -160.685765 -56.714908 139.929763 -19.170572 24.114561 13.380841 -70.771683 52.924494 43.700498 -89.835461 60.702148 81.262754 -3.072118 20.69437 1.050609 -0.006679 3.473835 1.091901 -164.112876 20.814137 169.454266 7.928213 24.811638 7.002569 -21.357724 -35.126819 -20.079235 155.460052 -3.227798 -161.777534 -23.198038 -15.362493 -15.83025 178.770001 -0.091507 -178.864149 5.962116 18.699821 -0.336095 93.743665 37.963835 -53.548561 133.840427 -20.571719 -77.513114 -0.184726 -0.300416 0.104009 10.034996 13.207958 -3.18658 151.476684 17.84174 -137.538824 151.650356 20.005797 -139.91655 145.118942 0.185466 179.186604 -20.549968 -0.078961 9.047368 161.704759 70.564335 151.025746 76.299765 -51.33896 76.125488 -0.0 0.0 -0.0 -0.0 -2.27635 -180.0 -6.880793 -5.921355 -107.859822 -11.465574 25.060334 -64.504817 -0.0 0.0 -0.0 -0.0 -2.27635 -180.0 6.880793 -5.921355 107.859822 11.465574 25.060334 64.504817
-74.3938 84.3537 5.84009 -0.0 0.0 -0.0 -0.0 -4.771896 -180.0 0.0 -4.771896 -180.0 12.037091 11.003981 107.450631 -6.863102 14.769388 -107.723792 -0.0 -0.0 0.0 -0.0 -0.0 0.0 -159.220516 -48.028485 170.415257 -129.108159 52.177169 136.516976 179.305673 -5.586499 144.102757 173.279446 -8.787349 144.716573 71.831195 -48.263725 25.791675 -10.27518 -58.324179 -38.21001 -18.649417 23.634902 12.969565 11.65458 -21.484582 -6.169066 -36.036059 51.723116 29.832321 -5.222501 21.578902 1.632673 -145.119466 0.267775 -179.212461 22.2631 29.142502 -5.755414 12.632866 42.933991 10.532639 -0.497372 -0.788159 -2.359982 159.220516 -48.028485 -170.415257 129.108159 52.177169 -136.516976 178.421015 1.266199 -144.424749 -170.966071 -15.643643 -143.990006 85.829417 38.630721 -47.955432 27.840816 -5.620552 -35.68396 148.886119 -12.609784 -120.244776 64.307548 59.724545 -56.859128 36.036059 51.723116 -29.832321 12.169929 36.026122 -6.986734 0.000142 -0.018512 0.005816 166.779888 -22.607599 -174.425312 137.37807 -8.61869 134.657906 -5.27292 0.447811 0.725332 -0.0 0.0 -0.0 -0.0 -0.0 -0.0 7.081855 4.181059 77.332942 -151.579957 -27.88746 98.276681 -0.0 0.0 -0.0 -0.0 -0.0 -0.0 -7.081855 4.181059 -77.332942 151.579957 -27.88746 -98.276681
-74.4432 84.3627 5.36308 -0.0 0.0 -0.0 -0.0 -4.771896 -180.0 -0.0 -4.771896 -180.0 -8.144544 9.765136 -77.762661 11.253376 5.904095 77.877376 0.0 -0.0 -0.0 0.0 -0.0 -0.0 -85.537448 68.182427 88.688908 5.843373 75.512119 13.59165 -88.09946 -75.640643 -109.849742 49.498461 -65.870418 36.106583 -85.829417 38.630721 47.955432 10.529379 -21.21875 23.130461 45.282556 -63.865437 4.306423 -61.392007 42.9783 50.335751 -36.036059 51.723116 29.832321 2.842537 -3.261777 -3.01056 -0.000473 -0.060845 -0.019116 1.159408 -23.94304 -2.795032 14.930614 51.953687 11.868558 -0.108532 -0.268463 -2.585356 155.460052 -3.227798 -161.777534 -23.198038 -15.362493 -15.83025 178.770001 -0.091507 -178.864149 5.962116 18.699821 -0.336095 94.791592 37.828669 -54.283857 -167.667844 -44.628248 -73.356367 83.732676 42.330462 -69.989987 166.384074 -17.789819 -124.284254 161.153703 -8.160616 -143.465095 173.825924 -42.740165 -142.27825 0.000142 -0.01849 0.005809 165.753552 -1.268538 -171.930268 152.874681 39.991916 148.058988 146.169612 12.179625 140.741595 -0.0 0.0 -0.0 -0.0 -2.27635 -180.0 -6.880793 -5.921355 -107.859822 -11.465574 25.060334 -64.504817 -0.0 0.0 -0.0 -0.0 -2.27635 -180.0 6.880793 -5.921355 107.859822 11.465574 25.060334 64.504817
-74.5453 84.3646 4.86797 -0.0 0.0 -0.0 -0.0 -4.771896 -180.0 0.0 -4.771896 -180.0 12.037091 11.003981 107.450631 -6.863102 14.769388 -107.723792 -0.0 -0.0 0.0 -0.0 -0.0 0.0 -159.220516 -48.028485 170.415257 -129.108159 52.177169 136.516976 179.305673 -5.586499 144.102757 173.279446 -8.787349 144.716573 71.831195 -48.263725 25.791675 -11.308011 -46.78868 -33.036422 -14.228542 19.203392 9.559881 0.209508 -1.780913 -4.649104 7.904304 -24.807577 -3.013399 -10.019354 24.026843 6.886049 -145.119466 0.267775 -179.212461 22.2631 29.142502 -5.755414 12.632866 42.933991 10.532639 -150.513763 13.070097 -141.886744 159.220516 -48.028485 -170.415257 129.108159 52.177169 -136.516976 178.421015 1.266199 -144.424749 -170.966071 -15.643643 -143.990006 -1.871658 -1.856197 0.257905 29.729193 23.917303 -25.433802 2.68634 4.226753 -1.583637 173.747569 -14.069098 -110.435462 151.476684 17.84174 -137.538824 -5.28514 2.936578 0.696102 74.840941 72.961123 -92.827929 20.987744 -58.904495 38.944804 139.224096 -4.39683 136.390672 -4.986418 -0.256285 1.16612 -0.0 0.0 -0.0 -0.0 -0.0 -0.0 7.081855 4.181059 77.332942 -151.579957 -27.88746 98.276681 -0.0 0.0 -0.0 -0.0 -0.0 -0.0 -7.081855 4.181059 -77.332942 151.579957 -27.88746 -98.276681
-74.6872 84.357 4.37599 -0.0 0.0 -0.0 -0.0 -4.771896 -180.0 -0.0 -4.771896 -180.0 -8.144544 9.765136 -77.762661 11.253376 5.904095 77.877376 0.0 -0.0 -0.0 0.0 -0.0 -0.0 -85.537448 68.182427 88.688908 5.843373 75.512119 13.59165 -88.09946 -75.640643 -109.849742 49.498461 -65.870418 36.106583 -6.581133 6.344846 1.36571 -0.084027 1.20151 4.288437 -0.327682 0.529888 0.186114 -96.094303 47.066159 66.044177 -36.036059 51.723116 29.832321 -16.953273 43.079591 11.038882 -69.297282 72.946551 87.017042 -164.761628 27.984662 -175.883496 9.96654 32.461829 8.6263 -86.984914 -52.456325 -83.773446 155.460052 -3.227798 -161.777534 -23.198038 -15.362493 -15.83025 178.770001 -0.091507 -178.864149 5.962116 18.699821 -0.336095 7.758532 7.439094 -1.682075 -2.966604 -2.034416 -2.683786 117.600732 28.182069 -99.433449 -15.8833 -10.841035 16.847302 161.153703 -8.160616 -143.465095 166.011245 -22.717034 -143.903139 0.000142 -0.018533 0.005823 -0.010927 -0.131637 0.01305 158.294282 60.637837 150.819484 146.202258 9.654147 139.668308 -0.0 0.0 -0.0 -0.0 -0.0 -0.0 7.081855 4.181059 77.332942 -151.579957 -27.88746 98.276681 -0.0 0.0 -0.0 -0.0 -0.0 -0.0 -7.081855 4.181059 -77.332942 151.579957 -27.88746 -98.276681
